<svg id="supervised_user_circle_black_24dp" xmlns="http://www.w3.org/2000/svg" width="30" height="30" viewBox="0 0 30 30">
  <path id="Path_64" data-name="Path 64" d="M0,0H30V30H0Z" fill="none"/>
  <path id="Path_65" data-name="Path 65" d="M15.215,12.064a3.775,3.775,0,1,0-3.775,3.775A3.786,3.786,0,0,0,15.215,12.064ZM11.44,13.322A1.258,1.258,0,1,1,12.7,12.064,1.262,1.262,0,0,1,11.44,13.322Zm8.179,2.517A2.517,2.517,0,1,0,17.1,13.322,2.508,2.508,0,0,0,19.619,15.839ZM14.573,2.01A12.583,12.583,0,1,0,27.157,14.593,12.588,12.588,0,0,0,14.573,2.01ZM6.835,21.023a8.573,8.573,0,0,1,4.605-1.4c.088,0,.189.013.289.013A6.071,6.071,0,0,1,13.365,17.3a11.388,11.388,0,0,0-1.925-.2,11.248,11.248,0,0,0-5.952,1.8,9.921,9.921,0,0,1-.982-4.316A10.067,10.067,0,1,1,23.7,18.821a8.859,8.859,0,0,0-4.077-1.095c-1.913,0-5.663,1.019-5.663,3.4v3.5A9.984,9.984,0,0,1,6.835,21.023Z" transform="translate(0.415 0.419)" fill="#999"/>
</svg>
