<svg id="contacts_black_24dp" xmlns="http://www.w3.org/2000/svg" width="30" height="30" viewBox="0 0 30 30">
  <path id="Path_73" data-name="Path 73" d="M0,0H30V30H0Z" fill="none"/>
  <path id="Path_74" data-name="Path 74" d="M24.65,5H4.517A2.516,2.516,0,0,0,2,7.5v15A2.516,2.516,0,0,0,4.517,25H24.65a2.516,2.516,0,0,0,2.517-2.5V7.5A2.516,2.516,0,0,0,24.65,5Zm0,17.5H4.517V7.5H24.65ZM4.517,0H24.65V2.5H4.517Zm0,27.5H24.65V30H4.517ZM14.583,15a3.125,3.125,0,1,0-3.146-3.125A3.137,3.137,0,0,0,14.583,15Zm0-4.375a1.25,1.25,0,1,1-1.258,1.25A1.258,1.258,0,0,1,14.583,10.625Zm6.292,9.362c0-2.612-4.165-3.737-6.292-3.737s-6.292,1.125-6.292,3.737V21.25H20.875Zm-10.306-.612a7.09,7.09,0,0,1,8.041,0Z" transform="translate(0.417)" fill="#999"/>
</svg>
