<svg id="menu_book_black_24dp" xmlns="http://www.w3.org/2000/svg" width="30" height="30" viewBox="0 0 30 30">
  <g id="Group_47" data-name="Group 47">
    <rect id="Rectangle_42" data-name="Rectangle 42" width="30" height="30" fill="none"/>
  </g>
  <g id="Group_50" data-name="Group 50" transform="translate(1.25 5.625)">
    <g id="Group_49" data-name="Group 49">
      <path id="Path_66" data-name="Path 66" d="M26,5.125A14.756,14.756,0,0,0,21.625,4.5,11.625,11.625,0,0,0,14.75,6.375,11.625,11.625,0,0,0,7.875,4.5,11.625,11.625,0,0,0,1,6.375V24.688a.672.672,0,0,0,.625.625c.125,0,.188-.062.313-.062a15.257,15.257,0,0,1,5.938-1.375A11.625,11.625,0,0,1,14.75,25.75a15.057,15.057,0,0,1,6.875-1.875,12.723,12.723,0,0,1,5.938,1.313.563.563,0,0,0,.313.062.672.672,0,0,0,.625-.625V6.375A8.526,8.526,0,0,0,26,5.125ZM26,22a14.525,14.525,0,0,0-4.375-.625A15.057,15.057,0,0,0,14.75,23.25V8.875A15.057,15.057,0,0,1,21.625,7,14.525,14.525,0,0,1,26,7.625Z" transform="translate(-1 -4.5)" fill="#999"/>
      <g id="Group_48" data-name="Group 48" transform="translate(15 5.625)">
        <path id="Path_67" data-name="Path 67" d="M18.625,10.875a14.618,14.618,0,0,1,3.125.325V9.3A16.879,16.879,0,0,0,18.625,9,14.384,14.384,0,0,0,13,10.038v2.075A11.6,11.6,0,0,1,18.625,10.875Z" transform="translate(-13 -9)" fill="#999"/>
        <path id="Path_68" data-name="Path 68" d="M13,12.7v2.075a11.6,11.6,0,0,1,5.625-1.237,14.618,14.618,0,0,1,3.125.325v-1.9a16.879,16.879,0,0,0-3.125-.3A14.614,14.614,0,0,0,13,12.7Z" transform="translate(-13 -8.335)" fill="#999"/>
        <path id="Path_69" data-name="Path 69" d="M18.625,14.33A14.384,14.384,0,0,0,13,15.368v2.075A11.6,11.6,0,0,1,18.625,16.2a14.618,14.618,0,0,1,3.125.325v-1.9A15.871,15.871,0,0,0,18.625,14.33Z" transform="translate(-13 -7.668)" fill="#999"/>
      </g>
    </g>
  </g>
</svg>
