<svg id="wallpaper_black_24dp" xmlns="http://www.w3.org/2000/svg" width="30" height="30" viewBox="0 0 30 30">
  <path id="Path_70" data-name="Path 70" d="M0,0H30V30H0Z" fill="none"/>
  <path id="Path_71" data-name="Path 71" d="M4.517,4.517h8.808V2H4.517A2.524,2.524,0,0,0,2,4.517v8.808H4.517Zm7.55,11.325L7.033,22.133h15.1L18.358,17.1,15.8,20.51Zm8.808-5.663a1.888,1.888,0,1,0-1.888,1.887A1.885,1.885,0,0,0,20.875,10.179ZM24.65,2H15.842V4.517H24.65v8.808h2.517V4.517A2.524,2.524,0,0,0,24.65,2Zm0,22.65H15.842v2.517H24.65a2.524,2.524,0,0,0,2.517-2.517V15.842H24.65ZM4.517,15.842H2V24.65a2.524,2.524,0,0,0,2.517,2.517h8.808V24.65H4.517Z" transform="translate(0.417 0.417)" fill="#999"/>
</svg>
