<svg xmlns="http://www.w3.org/2000/svg" width="32.143" height="60" viewBox="0 0 32.143 60">
  <g id="Layer_2" data-name="Layer 2" transform="translate(0.028 0.029)">
    <g id="Layer_1" data-name="Layer 1" transform="translate(-0.028 -0.029)">
      <path id="Path_50" data-name="Path 50" d="M15.182,59.971a13.407,13.407,0,0,1-.906-1.632C9.8,46.127,5.165,33.974.936,21.672A16.2,16.2,0,0,1,16.922-.012,15.9,15.9,0,0,1,32.109,15.644a21.042,21.042,0,0,1-1.656,8.673q-7.2,17-14.324,34.058a15.378,15.378,0,0,1-.948,1.6Zm.87-31.629a12.044,12.044,0,0,0,12.3-11.918A12.3,12.3,0,0,0,16.31,4.115,12.08,12.08,0,0,0,4.121,16.183,11.737,11.737,0,0,0,16.052,28.342Z" transform="translate(0.028 0.029)" fill="#007a8a"/>
      <path id="Path_51" data-name="Path 51" d="M29.67,20.5c-.4,2.687-.723,5.374-1.23,8.044-.281,1.457-2.144,2.192-2.932,1.1-1.087-1.5-2.389-.985-3.631-.991-1.391,0-2.986-.848-3.983,1.075-.113.227-2.144,0-2.389-.484a11.238,11.238,0,0,1-1.344-4.431c-.2-3.087-.09-6.192-.054-9.286.036-2.514.973-3.487,3.523-3.583,2.819-.066,5.643-.072,8.462,0,2.389.066,3.183.926,3.219,3.3v5.159Zm-7.99-5.8H19.2c-3.338,0-3.493.113-3.1,3.5a2.1,2.1,0,0,0,1.391,1.439c2.813.137,5.637.107,8.456,0a1.791,1.791,0,0,0,1.338-.9c.949-2.765-.036-4.067-2.926-4.067Z" transform="translate(-5.568 -4.774)" fill="#007a8a"/>
    </g>
  </g>
</svg>
