<svg xmlns="http://www.w3.org/2000/svg" width="60.277" height="60" viewBox="0 0 60.277 60">
  <g id="Layer_2" data-name="Layer 2" transform="translate(0 0.052)">
    <g id="Layer_1" data-name="Layer 1" transform="translate(0 -0.052)">
      <path id="Path_45" data-name="Path 45" d="M29.937,56.35c-6.406,0-12.812.1-19.195-.051-2.357-.057-3.263.363-3.143,2.839.234,5.111.132,10.181,0,15.269,0,.9,1.116,2.72-1.3,2.657-2.129-.051-1.2-1.658-1.2-2.55-.078-7.03-.126-14.065,0-21.1.042-1.976-.654-2.612-2.585-2.345a7.729,7.729,0,0,1-1.026,0C.672,51.092,0,51,0,49.939s.522-1.38,1.548-1.374c4.955,0,9.9.034,14.858,0,.972,0,2.225.528,2.663-1.062.18-.636,1.08-.284,1.614-.17a41.87,41.87,0,0,0,18.985-.142c.8-.193,1.614-.4,1.889.874.2.9,1.3.5,1.991.505,4.865.034,9.729,0,14.6,0,.936,0,2.153-.363,2.129,1.278s-1.32,1.295-2.177,1.187c-2.4-.3-2.957.63-2.909,2.805.144,7.109.054,14.2.048,21.334,0,.926.324,2-1.4,1.925-1.632-.068-1.122-1.136-1.128-1.914-.036-5.576-.09-11.152,0-16.729.036-1.7-.54-2.175-2.309-2.152C43.6,56.4,36.764,56.35,29.937,56.35Z" transform="translate(0 -17.102)" fill="#007a8a"/>
      <path id="Path_46" data-name="Path 46" d="M43.033,65.441c2.663,0,5.326.034,7.989,0,1.1,0,1.579.312,1.55,1.516-.1,4.032-.04,8.069-.148,12.1a3.257,3.257,0,0,1-3.452,3.526c-2.181,0-3.458-1.266-3.532-3.674-.079-2.743-.2-5.491-.074-8.228.091-2.1-1.272-1.6-2.391-1.635s-2.43-.312-2.334,1.7c.125,2.737,0,5.485-.1,8.222-.079,2.317-1.272,3.555-3.339,3.611-2.181.068-3.549-1.2-3.623-3.589-.114-3.975-.04-7.91-.17-11.862-.051-1.5.63-1.7,1.88-1.7C37.865,65.481,40.449,65.441,43.033,65.441Z" transform="translate(-12.827 -25.047)" fill="#007a8a"/>
      <path id="Path_47" data-name="Path 47" d="M53.092,32.485c.074,4.418-.057,3.975-4.083,5.247-6.246,1.919-12.243.568-18.341-.284-1.136-.153-1.454-.727-1.42-1.783q.114-3.407.091-6.774c0-1.107.2-1.7,1.522-1.295,3.288.971,6.865.937,9.863,2.879A.852.852,0,0,0,41.8,30.4c3-1.908,6.564-2,9.852-2.987,1.068-.318,1.476.142,1.448,1.2C53.063,29.907,53.092,31.2,53.092,32.485Z" transform="translate(-11.031 -10.68)" fill="#007a8a"/>
      <path id="Path_48" data-name="Path 48" d="M51.569,5.253A5.3,5.3,0,0,1,41,5.5a5.3,5.3,0,1,1,10.6-.244Z" transform="translate(-16.104 0.052)" fill="#007a8a"/>
      <path id="Path_49" data-name="Path 49" d="M52.167,23.992c-4.98,2.226-10.011,2.527-15,.142C39.2,20.051,49.032,19.767,52.167,23.992Z" transform="translate(-14.45 -8.288)" fill="#007a8a"/>
    </g>
  </g>
</svg>
