<svg xmlns="http://www.w3.org/2000/svg" width="73.567" height="60" viewBox="0 0 73.567 60">
  <g id="Layer_2" data-name="Layer 2" transform="translate(0.004 0.003)">
    <g id="Layer_1" data-name="Layer 1" transform="translate(-0.004 -0.003)">
      <path id="Path_16" data-name="Path 16" d="M13.248,30.159c-3.494-2.94-4.339-5.086-3.036-7.865a5.3,5.3,0,0,1,6.3-3.288A5.36,5.36,0,0,1,21.1,24.119c.3,2.746-1.444,4.906-5.351,6.447,2.579,1.064,3.72,3.326,5.248,5.2s3.32,2.959,5.879,2.024c1.56-.567,3.4-.993,3.965,1.206s-1.289,2.579-2.869,3.088a9.941,9.941,0,0,1-8.452-1.212,11.075,11.075,0,0,0-.11,2.456c.226,1.16-.941,3.294,1.412,3.127,1.547-.11,4.248,1.824,4.564-1.934.116-1.341,1.618-1.605,2.83-1.612h22.86c1.425,0,2.714.471,2.811,2.031.11,1.818-1.251,2.392-2.8,2.237-2.114-.213-2.153,1.025-2.134,2.579.052,4.616-.058,9.232.058,13.847.039,1.805-.5,2.456-2.353,2.411-4.616-.1-9.232-.122-13.847,0-1.934.058-2.624-.529-2.579-2.527.129-4.616-.077-9.238.1-13.847.077-2.173-.864-2.392-2.656-2.43-2.72-.058-1.16,1.708-1.083,2.521.393,4.377.954,8.748,1.515,13.106.239,1.889.239,3.526-2.173,3.823s-2.895-1.289-3.1-3.165c-.309-2.875-.645-5.757-.864-8.645-.155-2.14-.838-3.133-3.294-3.152C9,51.614,9,51.517,9,41.77V36.941C9,32.564,9.316,32.048,13.248,30.159Z" transform="translate(-3.195 -6.704)" fill="#007a8a"/>
      <path id="Path_17" data-name="Path 17" d="M82.526,40.968a9.992,9.992,0,0,1-8.948.915c-1.425-.5-2.733-1.212-2.237-2.946s1.934-1.934,3.4-1.289c3.088,1.328,5.1-.052,6.891-2.411,1.289-1.683,2.256-3.636,4.577-4.513-4.165-2.2-5.647-4.351-5-7.246a5.3,5.3,0,0,1,4.809-4.513,5.4,5.4,0,0,1,6,3.346c1.289,2.772.387,5.009-3.3,8.033,3.868.832,4.829,3.4,4.558,6.911a50.633,50.633,0,0,0,0,7.736c.29,3.713-.741,6.35-4.861,6.911.193.309.271.567.367.574,5.647.29,5.654.29,5.647-5.4V36.114c0-1.67.3-3.159,2.334-3.081,1.8.064,2.147,1.418,2.121,2.991q-.251,14.253-.445,28.513c0,1.38-.413,2.237-2.037,2.166S94.7,65.691,94.7,64.531v-.967c-.084-6.086-1.1-6.879-7.207-5.879-1.509.245-1.934,1.077-1.934,2.417v4.835a1.549,1.549,0,0,1-1.753,1.773c-1.257.013-1.753-.477-1.837-1.676-.251-3.488.471-7.007-.425-10.489-.271-1.051.9-1.579,1.7-2.256-2.379-1.231-2.662.4-2.843,1.837-.4,3.088-.645,6.189-.986,9.29-.206,2.018-.806,3.681-3.333,3.223-2.43-.419-2.127-2.2-1.934-4,.535-4.255,1.07-8.522,1.483-12.8.193-2.031.993-3.12,3.14-3.275C83.2,46.261,83.19,46.209,82.526,40.968Z" transform="translate(-25.309 -6.715)" fill="#007a8a"/>
      <path id="Path_18" data-name="Path 18" d="M67.6,37.06c-1.676-2.031-3.636-2.392-5.918-2.321-4.281.135-8.574-.045-12.861.077-2.3.058-3.365-.645-3.223-3.114.148-2.991.077-6,0-9.025-.032-1.87.645-2.714,2.643-2.688q9.167.1,18.328,0c2.147-.032,2.83.922,2.778,2.92A69.739,69.739,0,0,0,69.4,31.9C69.613,34.017,66.957,34.888,67.6,37.06ZM54.058,26.984c-.187-.851-.645-1.373-1.554-1.289a1.374,1.374,0,1,0,.135,2.733A1.47,1.47,0,0,0,54.058,26.984Zm3.681,1.457A1.438,1.438,0,0,0,58.9,26.92a1.244,1.244,0,0,0-1.444-1.231,1.2,1.2,0,0,0-1.289,1.45A1.413,1.413,0,0,0,57.739,28.441Zm4.513,0a1.418,1.418,0,0,0,1.5-1.289,1.289,1.289,0,0,0-1.289-1.457,1.328,1.328,0,0,0-1.541,1.231c-.084.806.5,1.328,1.354,1.509Z" transform="translate(-16.194 -7.101)" fill="#007a8a"/>
      <path id="Path_19" data-name="Path 19" d="M33.113,16.876c-2.488-4.21-1.728-8.858-1.876-13.4C31.16,1.05,31.927-.059,34.531,0c5.8.129,11.6.11,17.406,0,2.321-.039,3.4.709,3.223,3.152a32.756,32.756,0,0,0,0,5.8c.239,2.385-.806,2.895-2.953,2.8-3.326-.155-6.659-.039-9.986,0-1.5,0-2.843.187-2.856,2.173a.883.883,0,0,1-1.089.9c-2.2-.5-3.513,1.212-5.2,1.986ZM49.642,6.8A1.612,1.612,0,0,0,48.2,5.388a1.354,1.354,0,0,0-1.5,1.328A1.289,1.289,0,0,0,48.05,8.18C48.914,8.244,49.365,7.619,49.642,6.8Zm-9.9.084a1.45,1.45,0,0,0-1.289-1.5,1.289,1.289,0,0,0-1.47,1.289,1.289,1.289,0,0,0,1.289,1.489c.838.1,1.251-.509,1.47-1.283Zm4.97.11a1.386,1.386,0,0,0-1.251-1.6,1.341,1.341,0,0,0-1.541,1.251,1.407,1.407,0,0,0,2.791.348Z" transform="translate(-11.095 0.003)" fill="#007a8a"/>
      <path id="Path_20" data-name="Path 20" d="M4.563,51.492c.206,2.437-1.238,6.273.548,8.161s5.679.529,8.638.645c3.72.142,3.687.251,3.223,4.119-.3,2.514.1,5.106.148,7.665,0,1.231,0,2.359-1.786,2.392s-1.876-1.019-1.857-2.3v-2.25c0-4.474,0-4.474-4.409-4.474-4.745,0-4.745,0-4.745,4.751v2.579c0,1.186-.645,1.689-1.831,1.689S.643,74.023.643,72.8C.54,62.889-.285,52.994.1,43.072a2.147,2.147,0,0,1,2.482-2.289c1.412.11,1.979,1.077,1.966,2.456C4.55,45.812,4.563,48.384,4.563,51.492Z" transform="translate(0.004 -14.486)" fill="#007a8a"/>
      <path id="Path_21" data-name="Path 21" d="M33.919,26l-.206.174L33.59,26l.361.1Z" transform="translate(-11.933 -9.237)" fill="#007a8a"/>
    </g>
  </g>
</svg>
