<svg xmlns="http://www.w3.org/2000/svg" width="80.34" height="60" viewBox="0 0 80.34 60">
  <g id="Layer_2" data-name="Layer 2" transform="translate(-0.001)">
    <g id="Layer_1" data-name="Layer 1" transform="translate(0.001)">
      <path id="Path_26" data-name="Path 26" d="M15.671,20.527c5.2-3.265,7.671-3.1,10.6.523,3.956-4.5,8.287-3.682,11.685,2.3a60.552,60.552,0,0,0,6.5-2.722,59.929,59.929,0,0,0,6.065-4.3c0,.987.159,1.556,0,1.722C46.541,21.7,42.661,25.487,38.5,28.811c-3.9,3.106-5.112,2.364-6-2.775V35.85H60.055c-1.48,2.927-2.54,5.039-5.862,5-13.336-.159-26.672-.126-40.008,0-2.572,0-3.467-.662-3.436-3.5.14-12.23.064-24.461.064-37.082C12.178.2,13.277.079,14.388.079,33.224.079,52.053.132,70.908,0c2.826,0,3.639.854,3.588,3.721-.146,8.489-.044,16.985-.063,25.48,0,1.073-.14,2.152-.21,3.172-4.661.556-4.864.384-4.871-3.973,0-6.84-.1-13.681.044-20.527.057-2.536-.845-3.212-3.131-3.2q-23.8.1-47.629,0c-2.4,0-3.112.848-3.01,3.311C15.8,12.045,15.671,16.131,15.671,20.527Zm4.369,5.145-.406-.04v9.535h.406Z" transform="translate(-3.632)" fill="#007a8a"/>
      <path id="Path_27" data-name="Path 27" d="M54.206,66.5c-1.139.4-2.285,1.152-3.43,1.165-10.919.086-21.852.053-32.771.06a59.544,59.544,0,0,1-6.622-.046C7.98,67.3,6.5,68.855,6.265,72.51c1.218.106,2.463.318,3.7.318,13.462,0,26.924.073,40.393-.04,2.463,0,3.847.543,4.5,3.1.411,1.622,1.569,3.059,2.589,4.94-1.218.119-2.145.285-3.072.285H4.391c-4.476,0-5.337-1.324-3.45-5.47C2.5,72.232,3.311,67.6,6,65.895c2.814-1.768,7.436-.762,11.257-.781,10.926-.06,21.852,0,32.771,0h3.609ZM41.817,76.913c-1.854-2.7-6.5-2.688-8.482,0Z" transform="translate(-0.001 -23.94)" fill="#007a8a"/>
      <path id="Path_28" data-name="Path 28" d="M111.207,65.537a13.381,13.381,0,0,1-13.992,13.82A14.078,14.078,0,0,1,83.31,65.451,14.478,14.478,0,0,1,97.461,51.28C105.2,51.313,111.221,57.538,111.207,65.537ZM94.448,56.9V73.84l9.933-8.4Z" transform="translate(-30.868 -19.357)" fill="#007a8a"/>
      <path id="Path_29" data-name="Path 29" d="M79.594,37.358V18.9H72.4c-5.185,0-10.37.113-15.548-.046-2.569-.073-3.642.761-3.41,3.39a36.3,36.3,0,0,1-.205,4.682c-2.331-1.583-3.715-8.5-2.225-10.145a3.092,3.092,0,0,1,2.079-.662c8.926-.046,17.879,0,26.785-.046,1.768-.046,2.7.616,2.7,2.437,0,5.96.106,11.919,0,17.879-.073,3.37-3.311,3.655-5.3,3.741-8.145.351-16.309.192-24.467.086a2.794,2.794,0,0,1-2.033-1.563,2.39,2.39,0,0,1,.867-2.165c.457-.278,1.457.351,2.225.55a6.576,6.576,0,0,0,1.569.331C63.338,37.364,71.271,37.358,79.594,37.358Z" transform="translate(-18.813 -6.001)" fill="#007a8a"/>
      <path id="Path_30" data-name="Path 30" d="M32.535,12.24a4.98,4.98,0,0,1,.139,9.933,5.112,5.112,0,0,1-4.966-4.761,4.986,4.986,0,0,1,4.827-5.172Z" transform="translate(-10.039 -4.135)" fill="#007a8a"/>
    </g>
  </g>
</svg>
