<svg xmlns="http://www.w3.org/2000/svg" width="63.649" height="60" viewBox="0 0 63.649 60">
  <g id="Layer_2" data-name="Layer 2" transform="translate(-0.018)">
    <g id="Layer_1" data-name="Layer 1" transform="translate(0.018)">
      <path id="Path_11" data-name="Path 11" d="M75.895,26.954c.743-.6,1.853-2.166,2.915-2.136,2.525.066,4.992.987,5.021,4.35.041,5.06.159,10.119-.065,15.166-.047,1-1.5,1.931-2.915,2.563V60.271c0,4.211-.112,4.314-4.13,4.326-2.006,0-4.018-.132-6.007,0-2.573.211-3.316-.981-3.292-3.423.077-8.753,0-17.507,0-26.26V32.446H55.928c-1.658,0-3.605.1-3.877-2.015s1.534-2.87,3.328-3.207L72.071,24.1c-2.112-2.28-3.54-4.717-2.561-8.224.7-2.563,2.638-4.644,5.588-4.608,2.844.036,4.166,1.733,4.891,4.572.974,3.808-.738,6.233-3.009,8.735A6.633,6.633,0,0,0,75.895,26.954Z" transform="translate(-20.251 -4.62)" fill="#007a8a"/>
      <path id="Path_12" data-name="Path 12" d="M33.1,50.788c1.741,1.639,3.54,3.236,5.21,4.929,1.044,1.045,2.183,2.473.543,3.6-.679.48-2.5,0-3.369-.654a27.5,27.5,0,0,1-3.54-3.776l-2.8,4.929-3.481-3.944a17.357,17.357,0,0,1-3.287,3.062c-1.068.6-2.561.438-3.865.6.33-1.159.348-2.6,1.056-3.422A72.267,72.267,0,0,1,25.1,50.764l-.419-.792H11.071c-7.169.006-8.933-1.8-8.939-9.149V17.218c0-2.041,1-4.064-1.351-5.913C-.76,10.1.22,7.942,2.061,7.1a9.126,9.126,0,0,1,3.623-.6c5.824-.06,11.653-.09,17.477,0,2.106.036,2.95-.726,2.809-2.882C25.81,1.8,26,0,28.477,0s2.744,1.765,2.573,3.644c-.23,2.455.991,2.954,3.086,2.894,3.717-.1,7.446-.048,11.17,0,1,0,1.988.168,3.027.258-.5,2.011-.625,3.842-1.452,5.241-.448.762-2.089,1.117-3.192,1.123-10.031.084-20.062.054-30.092.054-7.73-.006-7.73-.006-7.73,7.72V42.792c0,3.452.372,3.812,3.829,3.818H40.632a6.809,6.809,0,0,1,2.272.06,11.784,11.784,0,0,1,2.3,1.537c-.726.6-1.416,1.6-2.183,1.669-2.561.222-5.145.1-7.724.108H33.6Z" transform="translate(-0.018)" fill="#007a8a"/>
      <path id="Path_13" data-name="Path 13" d="M26.7,40.834c0-3.422.03-6.845,0-10.261C26.664,28.59,27.667,28,29.543,28c1.77,0,2.649.625,2.643,2.466q-.035,10.408,0,20.817c0,1.87-.979,2.455-2.7,2.466s-2.785-.507-2.785-2.36Q26.7,46.109,26.7,40.834Z" transform="translate(-10.656 -10.969)" fill="#007a8a"/>
      <path id="Path_14" data-name="Path 14" d="M21.51,45.838V54.1c0,1.853-.915,2.49-2.661,2.49s-2.785-.59-2.791-2.413q-.035-8.55,0-17.111c0-1.994,1.393-2.154,2.95-2.154s2.49.684,2.484,2.36C21.5,40.138,21.51,42.988,21.51,45.838Z" transform="translate(-6.406 -13.745)" fill="#007a8a"/>
      <path id="Path_15" data-name="Path 15" d="M42.835,53.309v5.139c.035,1.829-.885,2.5-2.643,2.531-1.87,0-2.885-.625-2.862-2.62.035-3.422,0-6.85,0-10.273,0-1.817.867-2.5,2.649-2.508s2.909.59,2.856,2.59C42.8,49.887,42.835,51.6,42.835,53.309Z" transform="translate(-14.894 -18.053)" fill="#007a8a"/>
    </g>
  </g>
</svg>
