<svg xmlns="http://www.w3.org/2000/svg" width="59.88" height="60" viewBox="0 0 59.88 60">
  <g id="Layer_2" data-name="Layer 2" transform="translate(-0.07)">
    <g id="Layer_1" data-name="Layer 1" transform="translate(0.07)">
      <path id="Path_42" data-name="Path 42" d="M57.027,38.609l2.916.444c0,6.516.048,13-.1,19.476,0,.486-1.44,1.326-2.232,1.344-5.07.126-10.152.066-15.228.066h-39a5.343,5.343,0,0,1-2.112-.09,2.238,2.238,0,0,1-1.2-1.566,2.01,2.01,0,0,1,1.2-1.548,52.736,52.736,0,0,1,5.466-.072v-13.4L3.1,42.773c0-3.882-.168-7.7.066-11.49.138-2.244,1.9-3.42,4.086-3.468,3.984-.09,7.974-.384,11.826,1.29,2.616,1.14,8.6-1.2,9.6-3.87,1.614-4.392,5.2-6.9,8.538-9.642a5.075,5.075,0,0,1,3-.708c4.428-.072,8.856,0,13.548,0V0l5.658,2.7c-.834,1.86-4.32,1.8-3,5l2.532.468c0,2.844.156,5.682-.048,8.49-.162,2.13-1.716,3.264-3.786,3.492a18.222,18.222,0,0,1-4,.066c-2.322-.252-3.162.558-3.042,2.964.09,1.9.534,2.658,2.574,2.682,5.622.066,6.42.99,6.426,6.6ZM38.745,21.87,38,21.21c-1.9,1.854-3.81,3.7-5.706,5.568a40.525,40.525,0,0,1-4.446,4.35c-3.444,2.472-7.284,3.564-11.532,2.19-.288-.1-.654.072-.93.114V37.8h3.156c4.3,0,5.61,1.3,5.622,5.508v7.164h6.756V44.639h7.8Zm-22.8,34.619V51.737c1.3-1.086,2.616-1.644,2.736-2.4A39.218,39.218,0,0,0,18.79,43.2H12.5v13.29ZM44.217,31.235v7.392h7.344V31.235Z" transform="translate(-0.07)" fill="#007a8a"/>
      <path id="Path_43" data-name="Path 43" d="M67.428,1.6c3.114.282,5.964,2,6.06,6.072A6.114,6.114,0,0,1,61.26,7.594,6.18,6.18,0,0,1,67.428,1.6Z" transform="translate(-24.547 -0.64)" fill="#007a8a"/>
      <path id="Path_44" data-name="Path 44" d="M18.421,31.873a5.148,5.148,0,0,1-5.244,4.908A5.208,5.208,0,0,1,8.27,31.513a5.124,5.124,0,0,1,5.4-5,5.064,5.064,0,0,1,4.752,5.358Z" transform="translate(-3.35 -10.603)" fill="#007a8a"/>
    </g>
  </g>
</svg>
