<svg xmlns="http://www.w3.org/2000/svg" width="62.062" height="60" viewBox="0 0 62.062 60">
  <g id="Layer_2" data-name="Layer 2" transform="translate(0.014 0.007)">
    <g id="Layer_1" data-name="Layer 1" transform="translate(-0.014 -0.007)">
      <path id="Path_22" data-name="Path 22" d="M28.566,29.122c1.4-.875,2.29-1.8,3.308-1.972,1.2-.18,3-.1,3.7.647s1.2,3.057.683,3.662c-2.841,3.171-5.994,6.125-10.615,6.839-.971,3.6-.6,4.088,3.159,4.094,5.916,0,11.837-.138,17.741.108,1.558.066,3.141,1.2,4.537,2.14.288.186-.126,2.236-.336,2.26-3.524.342-6.257,3.356-10.153,2.7-2.457-.42-4.825-.491-7.276-1.522-1.954-.827-4.633-.108-6.947.156-1.708.2-3.344,1.157-5.035,1.2-5.436.162-10.884.042-16.332.066-2.008.018-3.86-.24-4.717-2.308S.54,43.825,2.2,42.758a1.7,1.7,0,0,0,.6-1.133c.653-6.3,4.753-11.076,7.282-16.542a1.87,1.87,0,0,1,.342-.444c3.494-3.788,14.522-2.3,16.878,2.266C27.685,27.618,28.1,28.313,28.566,29.122ZM18.257,40.864c2.3-2.547,2.1-9.865-.186-12.527C15.614,32.809,15.638,38.311,18.257,40.864Z" transform="translate(0.014 -8.979)" fill="#007a8a"/>
      <path id="Path_23" data-name="Path 23" d="M53.436,82.949c1.235-2.2,2.649-4.735,4.3-7.678-2.254-4.915.809-8.99,4.969-9.68a6.472,6.472,0,0,1,7.264,8.265c-.473,1.444-.072,2.158.731,3.386,1.672,2.571,2.739,5.538,4.333,8.93H32.56c.683-3.362,1.247-6.593,3.6-9.212a3.326,3.326,0,0,0,.833-2.463c-.767-3.56,0-6.185,2.6-7.941a6.629,6.629,0,0,1,7.624.288c2.4,1.87,3,4.549,1.8,8.127-.084.258-.1.545,0,0C50.745,78.094,52.153,80.641,53.436,82.949Z" transform="translate(-12.974 -26.173)" fill="#007a8a"/>
      <path id="Path_24" data-name="Path 24" d="M62.578,17.471a5.329,5.329,0,0,0-.905.473c-3.632,4.088-4.2,3.9-6.9-1.265-.737-1.4-1.462-3.087-3.488-2.589A5.316,5.316,0,0,0,49,15.763a21.763,21.763,0,0,0-1.87,2.817c-2.014-2.284-3.29-4.2-3.117-6.863s0-5.256.066-7.882C44.135,1.408,45.346,0,47.911,0h27.57c2.326,0,3.44,1.2,3.44,3.476V25.718a3.319,3.319,0,0,1-2.871,3.6,16.878,16.878,0,0,1-3.338.348h-21.4a6.815,6.815,0,0,1-2.763-.539c2.038-2.02,3.722-4.363,6.977-4.339,5.352.036,10.7,0,16.051,0,1.241,0,2.8.39,2.859-1.708s-1.4-2.032-2.715-1.888C68.044,21.577,64.909,20.558,62.578,17.471Zm-4.291-.6a13.37,13.37,0,0,0,1.115-.821c2.823-2.6,3.093-2.781,5.628-.072,2.122,2.266,4.6,2.074,7.222,2.128,1.75,0,2.3-.737,2.254-2.4-.072-2.907-.114-5.82,0-8.727.09-2.038-.791-2.565-2.673-2.541-6.755.072-13.516.132-20.27,0-2.859-.066-2.583,1.648-2.6,3.476s-.132,3.8,2.655,3.362A4.2,4.2,0,0,1,56.662,14.2a19.839,19.839,0,0,0,1.612,2.643Z" transform="translate(-17.555 0.004)" fill="#007a8a"/>
      <path id="Path_25" data-name="Path 25" d="M25.945,0a6.233,6.233,0,0,1,6.533,6.521,6.377,6.377,0,0,1-6.455,6.389,6.491,6.491,0,0,1-6.563-6.593A6.263,6.263,0,0,1,25.945,0Z" transform="translate(-7.773 0.007)" fill="#007a8a"/>
    </g>
  </g>
</svg>
